<mxfile host="app.diagrams.net" modified="2021-05-28T05:47:22.802Z" agent="5.0 (Macintosh; Intel Mac OS X 10_15_7) AppleWebKit/537.36 (KHTML, like Gecko) Chrome/90.0.4430.212 Safari/537.36" etag="bNulsEmuMWBccNGU67nS" version="14.7.2" type="github" pages="3">
  <diagram id="iEtOmwOJfD_KUskytR4G" name="Page-1">
    <mxGraphModel dx="558" dy="654" grid="1" gridSize="10" guides="1" tooltips="1" connect="1" arrows="1" fold="1" page="1" pageScale="1" pageWidth="1169" pageHeight="827" math="0" shadow="0">
      <root>
        <mxCell id="0" />
        <mxCell id="1" parent="0" />
        <mxCell id="PuRZzSOzjB7w1leLaSp5-1" value="Custom Hooks" style="text;html=1;align=center;verticalAlign=middle;resizable=0;points=[];autosize=1;strokeColor=none;fontSize=30;" vertex="1" parent="1">
          <mxGeometry x="484" y="314" width="210" height="40" as="geometry" />
        </mxCell>
        <mxCell id="PuRZzSOzjB7w1leLaSp5-2" value="" style="rounded=0;whiteSpace=wrap;html=1;fillColor=#ffe6cc;strokeColor=#d79b00;" vertex="1" parent="1">
          <mxGeometry x="509" y="394" width="160" height="120" as="geometry" />
        </mxCell>
        <mxCell id="PuRZzSOzjB7w1leLaSp5-4" value="" style="html=1;shadow=0;dashed=0;align=center;verticalAlign=middle;shape=mxgraph.arrows2.arrow;dy=0.6;dx=40;notch=0;fillColor=#dae8fc;strokeColor=#6c8ebf;" vertex="1" parent="1">
          <mxGeometry x="389" y="439" width="110" height="30" as="geometry" />
        </mxCell>
        <mxCell id="PuRZzSOzjB7w1leLaSp5-5" value="" style="html=1;shadow=0;dashed=0;align=center;verticalAlign=middle;shape=mxgraph.arrows2.arrow;dy=0.6;dx=40;notch=0;fillColor=#d5e8d4;strokeColor=#82b366;" vertex="1" parent="1">
          <mxGeometry x="679" y="439" width="110" height="30" as="geometry" />
        </mxCell>
        <mxCell id="PuRZzSOzjB7w1leLaSp5-6" value="&lt;meta charset=&quot;utf-8&quot;&gt;&lt;div style=&quot;color: rgb(212, 212, 212); background-color: rgb(30, 30, 30); font-family: menlo, monaco, &amp;quot;courier new&amp;quot;, monospace; font-weight: normal; font-size: 12px; line-height: 18px;&quot;&gt;&lt;div&gt;&lt;span style=&quot;color: #d4d4d4&quot;&gt;[&lt;/span&gt;&lt;span style=&quot;color: #4fc1ff&quot;&gt;videos&lt;/span&gt;&lt;span style=&quot;color: #d4d4d4&quot;&gt;, &lt;/span&gt;&lt;span style=&quot;color: #dcdcaa&quot;&gt;search&lt;/span&gt;&lt;span style=&quot;color: #d4d4d4&quot;&gt;]&lt;/span&gt;&lt;/div&gt;&lt;/div&gt;" style="text;whiteSpace=wrap;html=1;align=left;" vertex="1" parent="1">
          <mxGeometry x="679" y="484" width="140" height="30" as="geometry" />
        </mxCell>
        <mxCell id="PuRZzSOzjB7w1leLaSp5-7" value="&lt;meta charset=&quot;utf-8&quot;&gt;&lt;div style=&quot;color: rgb(212, 212, 212); background-color: rgb(30, 30, 30); font-family: menlo, monaco, &amp;quot;courier new&amp;quot;, monospace; font-weight: normal; font-size: 12px; line-height: 18px;&quot;&gt;&lt;div&gt;&lt;span style=&quot;color: #9cdcfe&quot;&gt;defaultSearchTerm&lt;/span&gt;&lt;/div&gt;&lt;/div&gt;" style="text;whiteSpace=wrap;html=1;align=right;" vertex="1" parent="1">
          <mxGeometry x="349" y="484" width="150" height="30" as="geometry" />
        </mxCell>
        <mxCell id="PuRZzSOzjB7w1leLaSp5-8" value="&lt;div style=&quot;color: rgb(212 , 212 , 212) ; background-color: rgb(30 , 30 , 30) ; font-family: &amp;quot;menlo&amp;quot; , &amp;quot;monaco&amp;quot; , &amp;quot;courier new&amp;quot; , monospace ; font-weight: normal ; font-size: 12px ; line-height: 18px&quot;&gt;&lt;div&gt;&lt;span style=&quot;color: #dcdcaa&quot;&gt;useState&lt;/span&gt;&lt;span style=&quot;color: #d4d4d4&quot;&gt;()&lt;/span&gt;&lt;/div&gt;&lt;div&gt;&lt;div style=&quot;font-family: &amp;quot;menlo&amp;quot; , &amp;quot;monaco&amp;quot; , &amp;quot;courier new&amp;quot; , monospace ; line-height: 18px&quot;&gt;&lt;span style=&quot;color: #dcdcaa&quot;&gt;useEffect&lt;/span&gt;()&lt;/div&gt;&lt;/div&gt;&lt;/div&gt;" style="text;whiteSpace=wrap;html=1;align=center;" vertex="1" parent="1">
          <mxGeometry x="534" y="434" width="110" height="50" as="geometry" />
        </mxCell>
        <mxCell id="PuRZzSOzjB7w1leLaSp5-9" style="edgeStyle=orthogonalEdgeStyle;rounded=0;orthogonalLoop=1;jettySize=auto;html=1;exitX=0.5;exitY=1;exitDx=0;exitDy=0;align=center;" edge="1" parent="1" source="PuRZzSOzjB7w1leLaSp5-8" target="PuRZzSOzjB7w1leLaSp5-8">
          <mxGeometry relative="1" as="geometry" />
        </mxCell>
        <mxCell id="PuRZzSOzjB7w1leLaSp5-10" value="Input" style="text;html=1;align=center;verticalAlign=middle;resizable=0;points=[];autosize=1;strokeColor=none;fontSize=14;" vertex="1" parent="1">
          <mxGeometry x="405" y="410" width="50" height="20" as="geometry" />
        </mxCell>
        <mxCell id="PuRZzSOzjB7w1leLaSp5-11" value="Output" style="text;html=1;align=center;verticalAlign=middle;resizable=0;points=[];autosize=1;strokeColor=none;fontSize=14;" vertex="1" parent="1">
          <mxGeometry x="704" y="410" width="60" height="20" as="geometry" />
        </mxCell>
      </root>
    </mxGraphModel>
  </diagram>
  <diagram id="xY_2fEtoPEe80_mpayXo" name="Page-2">
    <mxGraphModel dx="558" dy="654" grid="1" gridSize="10" guides="1" tooltips="1" connect="1" arrows="1" fold="1" page="1" pageScale="1" pageWidth="1169" pageHeight="827" math="0" shadow="0">
      <root>
        <mxCell id="lEBJGN38zR72iJJI7qmF-0" />
        <mxCell id="lEBJGN38zR72iJJI7qmF-1" parent="lEBJGN38zR72iJJI7qmF-0" />
        <mxCell id="lEBJGN38zR72iJJI7qmF-3" value="&lt;div style=&quot;color: rgb(212 , 212 , 212) ; background-color: rgb(30 , 30 , 30) ; font-family: &amp;#34;menlo&amp;#34; , &amp;#34;monaco&amp;#34; , &amp;#34;courier new&amp;#34; , monospace ; font-weight: normal ; font-size: 12px ; line-height: 18px&quot;&gt;&lt;div&gt;&lt;span style=&quot;color: #569cd6&quot;&gt;const&lt;/span&gt;&lt;span style=&quot;color: #d4d4d4&quot;&gt; &lt;/span&gt;&lt;span style=&quot;color: #dcdcaa&quot;&gt;useVideos&lt;/span&gt;&lt;span style=&quot;color: #d4d4d4&quot;&gt; = (&lt;/span&gt;&lt;span style=&quot;color: #9cdcfe&quot;&gt;defaultSearchTerm&lt;/span&gt;&lt;span style=&quot;color: #d4d4d4&quot;&gt;) &lt;/span&gt;&lt;span style=&quot;color: #569cd6&quot;&gt;=&amp;gt;&lt;/span&gt;&lt;span style=&quot;color: #d4d4d4&quot;&gt; {&lt;/span&gt;&lt;/div&gt;&lt;div&gt;&lt;span style=&quot;color: #d4d4d4&quot;&gt;&lt;/span&gt;&lt;span style=&quot;color: #569cd6&quot;&gt;&amp;nbsp; const&lt;/span&gt;&lt;span style=&quot;color: #d4d4d4&quot;&gt; [&lt;/span&gt;&lt;span style=&quot;color: #4fc1ff&quot;&gt;videos&lt;/span&gt;&lt;span style=&quot;color: #d4d4d4&quot;&gt;, &lt;/span&gt;&lt;span style=&quot;color: #dcdcaa&quot;&gt;setVideos&lt;/span&gt;&lt;span style=&quot;color: #d4d4d4&quot;&gt;] = &lt;/span&gt;&lt;span style=&quot;color: #dcdcaa&quot;&gt;useState&lt;/span&gt;&lt;span style=&quot;color: #d4d4d4&quot;&gt;([]);&lt;/span&gt;&lt;/div&gt;&lt;br&gt;&lt;div&gt;&lt;span style=&quot;color: #d4d4d4&quot;&gt;&lt;/span&gt;&lt;span style=&quot;color: #569cd6&quot;&gt;&amp;nbsp; const&lt;/span&gt;&lt;span style=&quot;color: #d4d4d4&quot;&gt; &lt;/span&gt;&lt;span style=&quot;color: #dcdcaa&quot;&gt;search&lt;/span&gt;&lt;span style=&quot;color: #d4d4d4&quot;&gt; = &lt;/span&gt;&lt;span style=&quot;color: #569cd6&quot;&gt;async&lt;/span&gt;&lt;span style=&quot;color: #d4d4d4&quot;&gt; (&lt;/span&gt;&lt;span style=&quot;color: #9cdcfe&quot;&gt;term&lt;/span&gt;&lt;span style=&quot;color: #d4d4d4&quot;&gt;) &lt;/span&gt;&lt;span style=&quot;color: #569cd6&quot;&gt;=&amp;gt;&lt;/span&gt;&lt;span style=&quot;color: #d4d4d4&quot;&gt; {&lt;/span&gt;&lt;/div&gt;&lt;div&gt;&lt;span style=&quot;color: #d4d4d4&quot;&gt;&lt;/span&gt;&lt;span style=&quot;color: #569cd6&quot;&gt;&amp;nbsp; &amp;nbsp; const&lt;/span&gt;&lt;span style=&quot;color: #d4d4d4&quot;&gt; &lt;/span&gt;&lt;span style=&quot;color: #4fc1ff&quot;&gt;response&lt;/span&gt;&lt;span style=&quot;color: #d4d4d4&quot;&gt; = &lt;/span&gt;&lt;span style=&quot;color: #c586c0&quot;&gt;await&lt;/span&gt;&lt;span style=&quot;color: #d4d4d4&quot;&gt; &lt;/span&gt;&lt;span style=&quot;color: #4fc1ff&quot;&gt;youtube&lt;/span&gt;&lt;span style=&quot;color: #d4d4d4&quot;&gt;.&lt;/span&gt;&lt;span style=&quot;color: #dcdcaa&quot;&gt;get&lt;/span&gt;&lt;span style=&quot;color: #d4d4d4&quot;&gt;(&lt;/span&gt;&lt;span style=&quot;color: #ce9178&quot;&gt;&quot;/search&quot;&lt;/span&gt;&lt;span style=&quot;color: #d4d4d4&quot;&gt;, {&lt;/span&gt;&lt;/div&gt;&lt;div&gt;&lt;span style=&quot;color: #d4d4d4&quot;&gt;&lt;/span&gt;&lt;span style=&quot;color: #9cdcfe&quot;&gt;&amp;nbsp; &amp;nbsp; &amp;nbsp; params&lt;/span&gt;&lt;span style=&quot;color: #9cdcfe&quot;&gt;:&lt;/span&gt;&lt;span style=&quot;color: #d4d4d4&quot;&gt; { &lt;/span&gt;&lt;span style=&quot;color: #9cdcfe&quot;&gt;q&lt;/span&gt;&lt;span style=&quot;color: #9cdcfe&quot;&gt;:&lt;/span&gt;&lt;span style=&quot;color: #d4d4d4&quot;&gt; &lt;/span&gt;&lt;span style=&quot;color: #9cdcfe&quot;&gt;term&lt;/span&gt;&lt;span style=&quot;color: #d4d4d4&quot;&gt;, &lt;/span&gt;&lt;span style=&quot;color: #9cdcfe&quot;&gt;part&lt;/span&gt;&lt;span style=&quot;color: #9cdcfe&quot;&gt;:&lt;/span&gt;&lt;span style=&quot;color: #d4d4d4&quot;&gt; &lt;/span&gt;&lt;span style=&quot;color: #ce9178&quot;&gt;&quot;snippet&quot;&lt;/span&gt;&lt;span style=&quot;color: #d4d4d4&quot;&gt;, &lt;/span&gt;&lt;span style=&quot;color: #9cdcfe&quot;&gt;maxResults&lt;/span&gt;&lt;span style=&quot;color: #9cdcfe&quot;&gt;:&lt;/span&gt;&lt;span style=&quot;color: #d4d4d4&quot;&gt; &lt;/span&gt;&lt;span style=&quot;color: #b5cea8&quot;&gt;5&lt;/span&gt;&lt;span style=&quot;color: #d4d4d4&quot;&gt; },&lt;/span&gt;&lt;/div&gt;&lt;div&gt;&lt;span style=&quot;color: #d4d4d4&quot;&gt;&amp;nbsp; &amp;nbsp; });&lt;/span&gt;&lt;/div&gt;&lt;div&gt;&lt;span style=&quot;color: #d4d4d4&quot;&gt;&lt;/span&gt;&lt;span style=&quot;color: #dcdcaa&quot;&gt;&amp;nbsp; &amp;nbsp; setVideos&lt;/span&gt;&lt;span style=&quot;color: #d4d4d4&quot;&gt;(&lt;/span&gt;&lt;span style=&quot;color: #4fc1ff&quot;&gt;response&lt;/span&gt;&lt;span style=&quot;color: #d4d4d4&quot;&gt;.&lt;/span&gt;&lt;span style=&quot;color: #9cdcfe&quot;&gt;data&lt;/span&gt;&lt;span style=&quot;color: #d4d4d4&quot;&gt;.&lt;/span&gt;&lt;span style=&quot;color: #9cdcfe&quot;&gt;items&lt;/span&gt;&lt;span style=&quot;color: #d4d4d4&quot;&gt;);&lt;/span&gt;&lt;/div&gt;&lt;div&gt;&lt;span style=&quot;color: #d4d4d4&quot;&gt;&amp;nbsp; };&lt;/span&gt;&lt;/div&gt;&lt;br&gt;&lt;div&gt;&lt;span style=&quot;color: #d4d4d4&quot;&gt;&lt;/span&gt;&lt;span style=&quot;color: #dcdcaa&quot;&gt;&amp;nbsp; useEffect&lt;/span&gt;&lt;span style=&quot;color: #d4d4d4&quot;&gt;(() &lt;/span&gt;&lt;span style=&quot;color: #569cd6&quot;&gt;=&amp;gt;&lt;/span&gt;&lt;span style=&quot;color: #d4d4d4&quot;&gt; {&lt;/span&gt;&lt;/div&gt;&lt;div&gt;&lt;span style=&quot;color: #d4d4d4&quot;&gt;&lt;/span&gt;&lt;span style=&quot;color: #dcdcaa&quot;&gt;&amp;nbsp; &amp;nbsp; search&lt;/span&gt;&lt;span style=&quot;color: #d4d4d4&quot;&gt;(&lt;/span&gt;&lt;span style=&quot;color: #9cdcfe&quot;&gt;defaultSearchTerm&lt;/span&gt;&lt;span style=&quot;color: #d4d4d4&quot;&gt;);&lt;/span&gt;&lt;/div&gt;&lt;div&gt;&lt;span style=&quot;color: #d4d4d4&quot;&gt;&amp;nbsp; }, [&lt;/span&gt;&lt;span style=&quot;color: #9cdcfe&quot;&gt;defaultSearchTerm&lt;/span&gt;&lt;span style=&quot;color: #d4d4d4&quot;&gt;]);&lt;/span&gt;&lt;/div&gt;&lt;br&gt;&lt;div&gt;&lt;span style=&quot;color: #d4d4d4&quot;&gt;&lt;/span&gt;&lt;span style=&quot;color: #c586c0&quot;&gt;&amp;nbsp; return&lt;/span&gt;&lt;span style=&quot;color: #d4d4d4&quot;&gt; [&lt;/span&gt;&lt;span style=&quot;color: #4fc1ff&quot;&gt;videos&lt;/span&gt;&lt;span style=&quot;color: #d4d4d4&quot;&gt;, &lt;/span&gt;&lt;span style=&quot;color: #dcdcaa&quot;&gt;search&lt;/span&gt;&lt;span style=&quot;color: #d4d4d4&quot;&gt;];&lt;/span&gt;&lt;/div&gt;&lt;div&gt;&lt;span style=&quot;color: #d4d4d4&quot;&gt;};&lt;/span&gt;&lt;/div&gt;&lt;/div&gt;" style="text;whiteSpace=wrap;html=1;fontSize=14;" vertex="1" parent="lEBJGN38zR72iJJI7qmF-1">
          <mxGeometry x="270" y="180" width="450" height="300" as="geometry" />
        </mxCell>
        <mxCell id="yvXcxFBMJB1BvReGpUol-0" value="useVideos" style="text;html=1;align=center;verticalAlign=middle;resizable=0;points=[];autosize=1;strokeColor=none;fontSize=30;" vertex="1" parent="lEBJGN38zR72iJJI7qmF-1">
          <mxGeometry x="415" y="120" width="160" height="40" as="geometry" />
        </mxCell>
      </root>
    </mxGraphModel>
  </diagram>
  <diagram id="Xg3vSe2vxqgQO5lmCnWK" name="Page-3">
    <mxGraphModel dx="460" dy="374" grid="1" gridSize="10" guides="1" tooltips="1" connect="1" arrows="1" fold="1" page="1" pageScale="1" pageWidth="1169" pageHeight="827" math="0" shadow="0">
      <root>
        <mxCell id="pFhzrYQZ9Q6KFvjL7jJB-0" />
        <mxCell id="pFhzrYQZ9Q6KFvjL7jJB-1" parent="pFhzrYQZ9Q6KFvjL7jJB-0" />
        <mxCell id="hLnDdM1sx7eBZ1nKQQE9-0" value="&lt;div style=&quot;color: rgb(212 , 212 , 212) ; background-color: rgb(30 , 30 , 30) ; font-family: &amp;#34;menlo&amp;#34; , &amp;#34;monaco&amp;#34; , &amp;#34;courier new&amp;#34; , monospace ; font-weight: normal ; font-size: 12px ; line-height: 18px&quot;&gt;&lt;div&gt;&lt;span style=&quot;color: #569cd6&quot;&gt;const&lt;/span&gt;&lt;span style=&quot;color: #d4d4d4&quot;&gt; &lt;/span&gt;&lt;span style=&quot;color: #dcdcaa&quot;&gt;App&lt;/span&gt;&lt;span style=&quot;color: #d4d4d4&quot;&gt; = () &lt;/span&gt;&lt;span style=&quot;color: #569cd6&quot;&gt;=&amp;gt;&lt;/span&gt;&lt;span style=&quot;color: #d4d4d4&quot;&gt; {&lt;/span&gt;&lt;/div&gt;&lt;div&gt;&lt;span style=&quot;color: #d4d4d4&quot;&gt;&lt;/span&gt;&lt;span style=&quot;color: #569cd6&quot;&gt;&amp;nbsp; const&lt;/span&gt;&lt;span style=&quot;color: #d4d4d4&quot;&gt; [&lt;/span&gt;&lt;span style=&quot;color: #4fc1ff&quot;&gt;videos&lt;/span&gt;&lt;span style=&quot;color: #d4d4d4&quot;&gt;, &lt;/span&gt;&lt;span style=&quot;color: #4fc1ff&quot;&gt;setVideos&lt;/span&gt;&lt;span style=&quot;color: #d4d4d4&quot;&gt;] = &lt;/span&gt;&lt;span style=&quot;color: #dcdcaa&quot;&gt;useState&lt;/span&gt;&lt;span style=&quot;color: #d4d4d4&quot;&gt;([]);&lt;/span&gt;&lt;/div&gt;&lt;div&gt;&lt;span style=&quot;color: #d4d4d4&quot;&gt;&lt;/span&gt;&lt;span style=&quot;color: #569cd6&quot;&gt;&amp;nbsp; const&lt;/span&gt;&lt;span style=&quot;color: #d4d4d4&quot;&gt; [&lt;/span&gt;&lt;span style=&quot;color: #4fc1ff&quot;&gt;selectedVideo&lt;/span&gt;&lt;span style=&quot;color: #d4d4d4&quot;&gt;, &lt;/span&gt;&lt;span style=&quot;color: #4fc1ff&quot;&gt;setSlectedVideo&lt;/span&gt;&lt;span style=&quot;color: #d4d4d4&quot;&gt;] = &lt;/span&gt;&lt;span style=&quot;color: #dcdcaa&quot;&gt;useState&lt;/span&gt;&lt;span style=&quot;color: #d4d4d4&quot;&gt;(&lt;/span&gt;&lt;span style=&quot;color: #569cd6&quot;&gt;null&lt;/span&gt;&lt;span style=&quot;color: #d4d4d4&quot;&gt;);&lt;/span&gt;&lt;/div&gt;&lt;br&gt;&lt;div&gt;&lt;span style=&quot;color: #d4d4d4&quot;&gt;&lt;/span&gt;&lt;span style=&quot;color: #569cd6&quot;&gt;&amp;nbsp; const&lt;/span&gt;&lt;span style=&quot;color: #d4d4d4&quot;&gt; &lt;/span&gt;&lt;span style=&quot;color: #dcdcaa&quot;&gt;handleSearchSubmit&lt;/span&gt;&lt;span style=&quot;color: #d4d4d4&quot;&gt; = &lt;/span&gt;&lt;span style=&quot;color: #569cd6&quot;&gt;async&lt;/span&gt;&lt;span style=&quot;color: #d4d4d4&quot;&gt; (&lt;/span&gt;&lt;span style=&quot;color: #9cdcfe&quot;&gt;term&lt;/span&gt;&lt;span style=&quot;color: #d4d4d4&quot;&gt;) &lt;/span&gt;&lt;span style=&quot;color: #569cd6&quot;&gt;=&amp;gt;&lt;/span&gt;&lt;span style=&quot;color: #d4d4d4&quot;&gt; {&lt;/span&gt;&lt;/div&gt;&lt;div&gt;&lt;span style=&quot;color: #d4d4d4&quot;&gt;&lt;/span&gt;&lt;span style=&quot;color: #569cd6&quot;&gt;&amp;nbsp; &amp;nbsp; const&lt;/span&gt;&lt;span style=&quot;color: #d4d4d4&quot;&gt; &lt;/span&gt;&lt;span style=&quot;color: #4fc1ff&quot;&gt;response&lt;/span&gt;&lt;span style=&quot;color: #d4d4d4&quot;&gt; = &lt;/span&gt;&lt;span style=&quot;color: #c586c0&quot;&gt;await&lt;/span&gt;&lt;span style=&quot;color: #d4d4d4&quot;&gt; &lt;/span&gt;&lt;span style=&quot;color: #9cdcfe&quot;&gt;youtube&lt;/span&gt;&lt;span style=&quot;color: #d4d4d4&quot;&gt;.&lt;/span&gt;&lt;span style=&quot;color: #dcdcaa&quot;&gt;get&lt;/span&gt;&lt;span style=&quot;color: #d4d4d4&quot;&gt;(&lt;/span&gt;&lt;span style=&quot;color: #ce9178&quot;&gt;&quot;/search&quot;&lt;/span&gt;&lt;span style=&quot;color: #d4d4d4&quot;&gt;, {&lt;/span&gt;&lt;/div&gt;&lt;div&gt;&lt;span style=&quot;color: #d4d4d4&quot;&gt;&lt;/span&gt;&lt;span style=&quot;color: #9cdcfe&quot;&gt;&amp;nbsp; &amp;nbsp; &amp;nbsp; params:&lt;/span&gt;&lt;span style=&quot;color: #d4d4d4&quot;&gt; { &lt;/span&gt;&lt;span style=&quot;color: #9cdcfe&quot;&gt;q:&lt;/span&gt;&lt;span style=&quot;color: #d4d4d4&quot;&gt; &lt;/span&gt;&lt;span style=&quot;color: #9cdcfe&quot;&gt;term&lt;/span&gt;&lt;span style=&quot;color: #d4d4d4&quot;&gt;, &lt;/span&gt;&lt;span style=&quot;color: #9cdcfe&quot;&gt;part:&lt;/span&gt;&lt;span style=&quot;color: #d4d4d4&quot;&gt; &lt;/span&gt;&lt;span style=&quot;color: #ce9178&quot;&gt;&quot;snippet&quot;&lt;/span&gt;&lt;span style=&quot;color: #d4d4d4&quot;&gt;, &lt;/span&gt;&lt;span style=&quot;color: #9cdcfe&quot;&gt;maxResults:&lt;/span&gt;&lt;span style=&quot;color: #d4d4d4&quot;&gt; &lt;/span&gt;&lt;span style=&quot;color: #b5cea8&quot;&gt;5&lt;/span&gt;&lt;span style=&quot;color: #d4d4d4&quot;&gt; },&lt;/span&gt;&lt;/div&gt;&lt;div&gt;&lt;span style=&quot;color: #d4d4d4&quot;&gt;&amp;nbsp; &amp;nbsp; });&lt;/span&gt;&lt;/div&gt;&lt;div&gt;&lt;span style=&quot;color: #d4d4d4&quot;&gt;&lt;/span&gt;&lt;span style=&quot;color: #dcdcaa&quot;&gt;&amp;nbsp; &amp;nbsp; setVideos&lt;/span&gt;&lt;span style=&quot;color: #d4d4d4&quot;&gt;(&lt;/span&gt;&lt;span style=&quot;color: #9cdcfe&quot;&gt;response&lt;/span&gt;&lt;span style=&quot;color: #d4d4d4&quot;&gt;.&lt;/span&gt;&lt;span style=&quot;color: #9cdcfe&quot;&gt;data&lt;/span&gt;&lt;span style=&quot;color: #d4d4d4&quot;&gt;.&lt;/span&gt;&lt;span style=&quot;color: #9cdcfe&quot;&gt;items&lt;/span&gt;&lt;span style=&quot;color: #d4d4d4&quot;&gt;);&lt;/span&gt;&lt;/div&gt;&lt;div&gt;&lt;span style=&quot;color: #d4d4d4&quot;&gt;&lt;/span&gt;&lt;span style=&quot;color: #dcdcaa&quot;&gt;&amp;nbsp; &amp;nbsp; setSlectedVideo&lt;/span&gt;&lt;span style=&quot;color: #d4d4d4&quot;&gt;(&lt;/span&gt;&lt;span style=&quot;color: #9cdcfe&quot;&gt;response&lt;/span&gt;&lt;span style=&quot;color: #d4d4d4&quot;&gt;.&lt;/span&gt;&lt;span style=&quot;color: #9cdcfe&quot;&gt;data&lt;/span&gt;&lt;span style=&quot;color: #d4d4d4&quot;&gt;.&lt;/span&gt;&lt;span style=&quot;color: #9cdcfe&quot;&gt;items&lt;/span&gt;&lt;span style=&quot;color: #d4d4d4&quot;&gt;[&lt;/span&gt;&lt;span style=&quot;color: #b5cea8&quot;&gt;0&lt;/span&gt;&lt;span style=&quot;color: #d4d4d4&quot;&gt;]);&lt;/span&gt;&lt;/div&gt;&lt;div&gt;&lt;span style=&quot;color: #d4d4d4&quot;&gt;&amp;nbsp; };&lt;/span&gt;&lt;/div&gt;&lt;br&gt;&lt;div&gt;&lt;span style=&quot;color: #d4d4d4&quot;&gt;&lt;/span&gt;&lt;span style=&quot;color: #dcdcaa&quot;&gt;&amp;nbsp; useEffect&lt;/span&gt;&lt;span style=&quot;color: #d4d4d4&quot;&gt;(() &lt;/span&gt;&lt;span style=&quot;color: #569cd6&quot;&gt;=&amp;gt;&lt;/span&gt;&lt;span style=&quot;color: #d4d4d4&quot;&gt; {&lt;/span&gt;&lt;/div&gt;&lt;div&gt;&lt;span style=&quot;color: #d4d4d4&quot;&gt;&lt;/span&gt;&lt;span style=&quot;color: #dcdcaa&quot;&gt;&amp;nbsp; &amp;nbsp; handleSearchSubmit&lt;/span&gt;&lt;span style=&quot;color: #d4d4d4&quot;&gt;();&lt;/span&gt;&lt;/div&gt;&lt;div&gt;&lt;span style=&quot;color: #d4d4d4&quot;&gt;&amp;nbsp; }, []);&lt;/span&gt;&lt;/div&gt;&lt;div&gt;&lt;span style=&quot;color: #d4d4d4&quot;&gt;};&lt;/span&gt;&lt;/div&gt;&lt;/div&gt;" style="text;whiteSpace=wrap;html=1;fontSize=14;" vertex="1" parent="pFhzrYQZ9Q6KFvjL7jJB-1">
          <mxGeometry x="260" y="270" width="430" height="300" as="geometry" />
        </mxCell>
        <mxCell id="hLnDdM1sx7eBZ1nKQQE9-3" style="edgeStyle=orthogonalEdgeStyle;rounded=0;orthogonalLoop=1;jettySize=auto;html=1;entryX=0;entryY=0.5;entryDx=0;entryDy=0;fontSize=14;fontColor=#000000;align=center;strokeColor=#D79B00;" edge="1" parent="pFhzrYQZ9Q6KFvjL7jJB-1" source="hLnDdM1sx7eBZ1nKQQE9-1" target="hLnDdM1sx7eBZ1nKQQE9-2">
          <mxGeometry relative="1" as="geometry" />
        </mxCell>
        <mxCell id="hLnDdM1sx7eBZ1nKQQE9-1" value="" style="rounded=0;whiteSpace=wrap;html=1;fontSize=14;align=right;strokeColor=#d79b00;fillColor=none;" vertex="1" parent="pFhzrYQZ9Q6KFvjL7jJB-1">
          <mxGeometry x="276" y="296" width="304" height="15" as="geometry" />
        </mxCell>
        <mxCell id="hLnDdM1sx7eBZ1nKQQE9-2" value="Videos" style="rounded=0;whiteSpace=wrap;html=1;fontSize=14;align=center;strokeColor=#d79b00;fillColor=#ffe6cc;" vertex="1" parent="pFhzrYQZ9Q6KFvjL7jJB-1">
          <mxGeometry x="760" y="280" width="80" height="40" as="geometry" />
        </mxCell>
        <mxCell id="hLnDdM1sx7eBZ1nKQQE9-4" style="edgeStyle=orthogonalEdgeStyle;rounded=0;orthogonalLoop=1;jettySize=auto;html=1;entryX=0;entryY=0.5;entryDx=0;entryDy=0;fontSize=14;fontColor=#000000;align=center;fillColor=#dae8fc;strokeColor=#9673A6;" edge="1" parent="pFhzrYQZ9Q6KFvjL7jJB-1" source="hLnDdM1sx7eBZ1nKQQE9-5" target="hLnDdM1sx7eBZ1nKQQE9-6">
          <mxGeometry relative="1" as="geometry" />
        </mxCell>
        <mxCell id="hLnDdM1sx7eBZ1nKQQE9-5" value="" style="rounded=0;whiteSpace=wrap;html=1;fontSize=14;align=right;strokeColor=#9673a6;fillColor=none;" vertex="1" parent="pFhzrYQZ9Q6KFvjL7jJB-1">
          <mxGeometry x="276" y="314" width="404" height="15" as="geometry" />
        </mxCell>
        <mxCell id="hLnDdM1sx7eBZ1nKQQE9-6" value="Selection" style="rounded=0;whiteSpace=wrap;html=1;fontSize=14;align=center;strokeColor=#9673a6;fillColor=#e1d5e7;" vertex="1" parent="pFhzrYQZ9Q6KFvjL7jJB-1">
          <mxGeometry x="760" y="330" width="80" height="40" as="geometry" />
        </mxCell>
        <mxCell id="hLnDdM1sx7eBZ1nKQQE9-7" style="edgeStyle=orthogonalEdgeStyle;rounded=0;orthogonalLoop=1;jettySize=auto;html=1;entryX=0;entryY=0.5;entryDx=0;entryDy=0;fontSize=14;fontColor=#000000;align=center;strokeColor=#D79B00;" edge="1" parent="pFhzrYQZ9Q6KFvjL7jJB-1" source="hLnDdM1sx7eBZ1nKQQE9-8" target="hLnDdM1sx7eBZ1nKQQE9-9">
          <mxGeometry relative="1" as="geometry" />
        </mxCell>
        <mxCell id="hLnDdM1sx7eBZ1nKQQE9-8" value="" style="rounded=0;whiteSpace=wrap;html=1;fontSize=14;align=right;strokeColor=#d79b00;fillColor=none;" vertex="1" parent="pFhzrYQZ9Q6KFvjL7jJB-1">
          <mxGeometry x="290" y="370" width="390" height="67" as="geometry" />
        </mxCell>
        <mxCell id="hLnDdM1sx7eBZ1nKQQE9-9" value="Videos" style="rounded=0;whiteSpace=wrap;html=1;fontSize=14;align=center;strokeColor=#d79b00;fillColor=#ffe6cc;" vertex="1" parent="pFhzrYQZ9Q6KFvjL7jJB-1">
          <mxGeometry x="760" y="394" width="80" height="40" as="geometry" />
        </mxCell>
        <mxCell id="hLnDdM1sx7eBZ1nKQQE9-10" style="edgeStyle=orthogonalEdgeStyle;rounded=0;orthogonalLoop=1;jettySize=auto;html=1;entryX=0;entryY=0.5;entryDx=0;entryDy=0;fontSize=14;fontColor=#000000;align=center;fillColor=#dae8fc;strokeColor=#9673A6;" edge="1" parent="pFhzrYQZ9Q6KFvjL7jJB-1" source="hLnDdM1sx7eBZ1nKQQE9-11" target="hLnDdM1sx7eBZ1nKQQE9-12">
          <mxGeometry relative="1" as="geometry" />
        </mxCell>
        <mxCell id="hLnDdM1sx7eBZ1nKQQE9-11" value="" style="rounded=0;whiteSpace=wrap;html=1;fontSize=14;align=right;strokeColor=#9673a6;fillColor=none;" vertex="1" parent="pFhzrYQZ9Q6KFvjL7jJB-1">
          <mxGeometry x="290" y="440" width="300" height="15" as="geometry" />
        </mxCell>
        <mxCell id="hLnDdM1sx7eBZ1nKQQE9-12" value="Selection" style="rounded=0;whiteSpace=wrap;html=1;fontSize=14;align=center;strokeColor=#9673a6;fillColor=#e1d5e7;" vertex="1" parent="pFhzrYQZ9Q6KFvjL7jJB-1">
          <mxGeometry x="760" y="456" width="80" height="40" as="geometry" />
        </mxCell>
        <mxCell id="hLnDdM1sx7eBZ1nKQQE9-13" style="edgeStyle=orthogonalEdgeStyle;rounded=0;orthogonalLoop=1;jettySize=auto;html=1;entryX=0;entryY=0.5;entryDx=0;entryDy=0;fontSize=14;fontColor=#000000;align=center;strokeColor=#D79B00;" edge="1" parent="pFhzrYQZ9Q6KFvjL7jJB-1" source="hLnDdM1sx7eBZ1nKQQE9-14" target="hLnDdM1sx7eBZ1nKQQE9-15">
          <mxGeometry relative="1" as="geometry" />
        </mxCell>
        <mxCell id="hLnDdM1sx7eBZ1nKQQE9-14" value="" style="rounded=0;whiteSpace=wrap;html=1;fontSize=14;align=right;strokeColor=#d79b00;fillColor=none;" vertex="1" parent="pFhzrYQZ9Q6KFvjL7jJB-1">
          <mxGeometry x="276" y="495" width="404" height="50" as="geometry" />
        </mxCell>
        <mxCell id="hLnDdM1sx7eBZ1nKQQE9-15" value="Videos" style="rounded=0;whiteSpace=wrap;html=1;fontSize=14;align=center;strokeColor=#d79b00;fillColor=#ffe6cc;" vertex="1" parent="pFhzrYQZ9Q6KFvjL7jJB-1">
          <mxGeometry x="760" y="514" width="80" height="40" as="geometry" />
        </mxCell>
      </root>
    </mxGraphModel>
  </diagram>
</mxfile>
